# Blender v2.58 (sub 0) OBJ File: 'level.blend'
# www.blender.org
mtllib level.mtl
o Cube.004
v 7.000000 -0.020000 -7.000000
v 7.000000 -0.020000 7.000000
v -7.000001 -0.020000 6.999999
v -6.999998 -0.020000 -7.000002
v 7.000003 0.020000 -6.999996
v 6.999995 0.020000 7.000004
v -7.000002 0.020000 6.999998
v -7.000000 0.020000 -7.000000
vn 0.000000 -1.000000 0.000000
vn 0.000000 1.000000 0.000000
vn 1.000000 0.000012 0.000000
vn -0.000000 -0.000048 1.000000
vn -1.000000 -0.000042 -0.000000
vn 0.000000 0.000072 -1.000000
usemtl Material.002
s off
f 1//1 2//1 3//1 4//1
f 5//2 8//2 7//2 6//2
f 1//3 5//3 6//3 2//3
f 2//4 6//4 7//4 3//4
f 3//5 7//5 8//5 4//5
f 5//6 1//6 4//6 8//6
o Cube.003
v -3.000000 0.000000 0.000000
v -3.000000 0.000000 2.000000
v -5.000000 0.000000 2.000000
v -5.000000 0.000000 -0.000000
v -3.000000 2.000000 0.000001
v -3.000001 2.000000 2.000000
v -5.000000 2.000000 2.000000
v -5.000000 2.000000 0.000000
vn 1.000000 0.000000 0.000000
vn -0.000000 -0.000000 1.000000
vn -1.000000 -0.000000 -0.000000
vn 0.000000 0.000000 -1.000000
usemtl Material
s off
f 9//1 10//1 11//1 12//1
f 13//2 16//2 15//2 14//2
f 9//7 13//7 14//7 10//7
f 10//8 14//8 15//8 11//8
f 11//9 15//9 16//9 12//9
f 13//10 9//10 12//10 16//10
o Cube.002
v 5.000000 0.000000 2.000000
v 5.000000 0.000000 4.000000
v 3.000000 0.000000 4.000000
v 3.000000 0.000000 2.000000
v 5.000000 2.000000 2.000000
v 5.000000 2.000000 4.000000
v 3.000000 2.000000 4.000000
v 3.000000 2.000000 2.000000
usemtl Material
s off
f 17//1 18//1 19//1 20//1
f 21//2 24//2 23//2 22//2
f 17//7 21//7 22//7 18//7
f 18//8 22//8 23//8 19//8
f 19//9 23//9 24//9 20//9
f 21//10 17//10 20//10 24//10
o Cube.001
v 1.000000 0.000000 -5.000000
v 1.000000 0.000000 -3.000000
v -1.000000 0.000000 -3.000000
v -1.000000 0.000000 -5.000000
v 1.000000 2.000000 -5.000000
v 0.999999 2.000000 -3.000000
v -1.000000 2.000000 -3.000000
v -1.000000 2.000000 -5.000000
usemtl Material
s off
f 25//1 26//1 27//1 28//1
f 29//2 32//2 31//2 30//2
f 25//7 29//7 30//7 26//7
f 26//8 30//8 31//8 27//8
f 27//9 31//9 32//9 28//9
f 29//10 25//10 28//10 32//10
o Cube
v 1.000000 0.000000 -5.000000
v 1.000000 0.000000 -3.000000
v -1.000000 0.000000 -3.000000
v -1.000000 0.000000 -5.000000
v 1.000000 2.000000 -5.000000
v 0.999999 2.000000 -3.000000
v -1.000000 2.000000 -3.000000
v -1.000000 2.000000 -5.000000
usemtl Material
s off
f 33//1 34//1 35//1 36//1
f 37//2 40//2 39//2 38//2
f 33//7 37//7 38//7 34//7
f 34//8 38//8 39//8 35//8
f 35//9 39//9 40//9 36//9
f 37//10 33//10 36//10 40//10
